<?xml version="1.0" encoding="iso-8859-1"?>
<!-- Generator: Adobe Illustrator 21.0.2, SVG Export Plug-In . SVG Version: 6.00 Build 0)  -->
<svg version="1.1" id="&#x428;&#x430;&#x440;_1" xmlns="http://www.w3.org/2000/svg" xmlns:xlink="http://www.w3.org/1999/xlink"
	 x="0px" y="0px" viewBox="0 0 24 24" style="enable-background:new 0 0 24 24;" xml:space="preserve">
<g>
<path style="fill:#2C0D70;" d="M21 11h-1.5v-.5h-2v3h2V13H21v1c0 .55-.45 1-1 1h-3c-.55 0-1-.45-1-1v-4c0-.55.45-1 1-1h3c.55 0 1 .45 1 1v1zM8 10v5H6.5v-1.5h-2V15H3v-5c0-.55.45-1 1-1h3c.55 0 1 .45 1 1zm-1.5.5h-2V12h2v-1.5zm7 1.5c.55 0 1 .45 1 1v1c0 .55-.45 1-1 1h-4V9h4c.55 0 1 .45 1 1v1c0 .55-.45 1-1 1zM11 10.5v.75h2v-.75h-2zm2 2.25h-2v.75h2v-.75z"></path>
</g>
</svg>